<svg version="1" xmlns="http://www.w3.org/2000/svg" width="6901.333" height="6901.333" viewBox="0 0 5176.000000 5176.000000"><path d="M699.3 1524.2c298.1 453.6 459.2 699.2 459 699.9-.2.5-109 171.7-241.9 380.5-132.9 208.7-241.4 379.7-241.3 379.8.2.2 31.7-.1 69.9-.6 72.5-1 878.6-.3 1051.5.9l97 .6 1.3-14.1c6.4-74.2 30.3-149.7 68.2-216.1 21.9-38.3 55-85.6 84.9-121.3 36.2-43.3 86.8-93.8 134.1-133.9 57.2-48.5 113.2-89.3 213-155.4 27.2-18.1 70.9-47 97-64.3 104.2-69 153.1-106.4 198.6-151.7 52.6-52.4 82.8-102.3 94.8-156.5 5.3-24.2 6-57.8 1.6-78.5-12.8-59.8-63.5-106.9-134.4-125-33.3-8.4-72.2-9.7-107.4-3.6-55.3 9.7-98.3 35.6-127.9 76.9-34.3 47.9-52 113.8-54.9 204.4l-.6 20.8h-2.4c-2.1 0-2.4.5-2.4 3.5v3.5H2258.3l-.7 11.7c-4.8 79.7-29 148.1-71.1 200.8-11 13.9-32.7 35.2-47.3 46.5-66.1 51.2-153.7 78.8-268.7 85-10.4.5-63.4 1-117.7 1H1654v324h-342V1701h268.3c166.6 0 274.4.4 284.7 1 42.5 2.6 82.2 8.1 115.9 16.1 6.8 1.6 12.5 2.8 12.6 2.7.2-.2 3.5-6.8 7.5-14.8 10.6-21.3 18.7-35.1 33.5-57.5 49.8-75 116.3-132.8 200-174 10.5-5.1 21.7-10.5 25-11.9l6-2.5-804.2-.1H657.1l42.2 64.2zM2965.5 1461.6c1.7.7 10.2 4.7 19 8.7 74 34.1 139.8 84.2 185.9 141.6 31.2 38.9 56.1 83.8 73.2 132.1l4.8 13.6 11.6-7.4c67.1-42.9 149.8-67.2 257-75.4 21.4-1.6 91.6-1.6 112 0 78.4 6.3 140.6 21.8 195.5 48.8 36.6 17.9 65.9 38.6 93.9 66.2 45.2 44.6 76.1 99.9 92.5 165.7 3.1 12.5 7.4 34.3 8.6 43.2l.7 5.3h-324.8l-2.7-10.6c-11.6-47.1-50.5-73.1-117.2-78.5-15.5-1.2-36.8-.6-54.1 1.7-34.5 4.4-57.6 16.6-66.3 34.7-6.8 14.3-6.5 30.3 1 45.5 13 26.4 47.7 46 116.4 65.7 8.8 2.5 45.5 11.9 81.5 21 36 9 72.3 18.2 80.5 20.5 115.6 31.9 186.6 66.4 237.4 115.5 45.7 44.2 70.2 97.5 76.1 165.5 2.8 32.2-.3 75.9-7.6 109-5.7 25.5-13.2 46.7-24.9 70.5-41.7 84.8-122 145.4-236.7 178.6-93 26.8-219.5 35-315.8 20.3-55.9-8.5-105.4-23.5-151.5-45.8-14.6-7.1-33.6-17.4-41.2-22.4l-2.3-1.4V2985l375.2-.2 375.3-.3 250.2-381.2L4519 2222l-253.7-381-253.6-381-524.6.1c-455.1 0-524.2.2-521.6 1.5z"/><path d="M1654 2060.1v115l84.3-.4c80.5-.4 84.7-.5 95.2-2.5 6.1-1.2 15.1-3.3 20-4.7 42.5-12.4 67.7-40.1 75.9-83.4.9-4.6 1.6-8.7 1.6-9.2s-1.8-.9-4-.9h-4.1l.8-21.8c1.4-38.5 1.5-37.6-3.5-46-20.3-34.1-61.2-53.5-126.1-59.6-12.9-1.3-29.9-1.6-78.3-1.6H1654v115.1zM3183.2 2201.4c-43.3 56.3-101.8 108.1-188 166-31.6 21.3-53.3 35.1-118.7 75.5-85.2 52.6-110.5 67.6-193 114.6-70 39.9-115.5 66.9-141.5 83.9l-11.5 7.6h677.8l-14.5-14.8c-46.8-47.8-76.9-103.3-89.2-165.2-2.3-11.5-5.6-37.9-5.6-45v-3h327.8l1.2 5.2c7.5 31.4 25.2 57.3 50.9 74.2 18.4 12.2 37.7 20 62.6 25.3 12.5 2.6 14.1 2.8 42 2.8 31.3 0 40.7-.9 63-6.2 48.7-11.4 76.3-38.1 74.2-71.8-1.5-25.1-18.2-44.6-52.2-61-24.3-11.7-55.3-21.6-111-35.2-91.7-22.4-120.5-29.6-138.5-34.8-103-29.6-170-63.8-218.3-111.6l-12.8-12.6-4.7 6.1zM1234.6 3073.5c-76.2 9.6-130.5 43.7-170.2 106.8-31.2 49.5-49.9 110.9-58 189.7-2.1 21.1-3 88.1-1.5 110.6 6.5 93 32.7 165.8 79.2 219.9 44.3 51.6 101.1 76.8 172.9 76.8 23 0 37.4-1.6 56.2-6.3 42.6-10.6 78.6-36.1 104.2-73.8 2.7-3.9 5.2-7.2 5.5-7.2.4 0 4.9 17.2 10.2 38.2l9.5 38.3 31.7.3 31.7.2v-365h-237v117H1371.3l-.6 15.2c-2.3 51.5-15.8 87.1-40.1 105.5-30.5 23.1-82.2 20.9-114.3-5-29.6-23.8-44.8-63.6-52-135.8-2.2-22.3-2.5-110.3-.5-135.4 3.4-41.7 9-72.5 17.3-96 9.8-28 28.9-51.8 51-63.8 11.9-6.5 21.6-8.9 37.9-9.4 16-.6 26 1.1 37.3 6.1 12.3 5.4 25.6 17.2 34.5 30.3 13.1 19.3 22.8 49.2 27.7 84.8.9 6.6 1.8 12.1 1.9 12.3.5.4 133.6-21.4 134.2-22.1 1.5-1.5-5.9-45-10.7-62.7-19.7-73.2-55.8-121.5-110.4-148-20.4-9.9-41.1-16.1-66.9-20.2-17.1-2.7-66.2-3.4-83-1.3zM3416 3073.6c-41.3 4.9-78.6 19.2-107.5 41.3-8.9 6.8-26.8 24.4-34.5 34.1-46.8 58.8-70 150-70 275.1 0 121.2 22.4 210.2 68.1 270.9 32.4 43 75.9 69 131.4 78.5 56.2 9.6 117.1 2.2 160.6-19.4 21.5-10.7 36.5-21.8 53.9-39.7 17.5-18.1 29.3-35.4 41.6-60.8 23.9-49.7 36.4-108.1 40.5-188.6 2.1-41.5.1-99.4-4.7-137-6.9-54.2-20.4-101.5-39.6-137.9-36.1-68.7-92.8-107.6-169.7-116.6-15.8-1.9-54.2-1.8-70.1.1zm54.3 122c28.2 6.2 48.9 29.7 58.7 66.8 7.1 27 11.1 61.4 13 113.1 3.2 87.6-1.8 168.8-13 211.1-9.6 36.2-29.2 59.2-56.7 66.5-10.1 2.7-28.8 3-38.3.5-12.2-3.1-22.6-9-31.6-18-16.5-16.5-25.4-37.7-31.8-75.7-5.2-30.6-7.4-62.6-8.3-116.9-1.4-99.4 5.9-168.9 21.7-203.6 10.1-22.4 29.6-39.5 50-43.8 9-2 27.4-2 36.3 0zM4905 3073.4c-57.3 7.3-102 30.7-135.8 71.1-28.3 33.7-43.4 73.7-46.1 122-3 53.2 9.8 96.1 40.4 135 7.7 9.8 21.5 23.4 31.3 30.9 20.7 15.8 60.4 34.8 114.2 54.7 38.2 14.2 45.2 17 60.5 24.4 18.7 9 28.6 15.6 36.7 24.4 12 13 17.8 28.1 17.8 46 0 16.8-4 29.3-13.3 41.8-9.3 12.5-27 23.8-44.1 28.3-25 6.4-55.5 4-76.3-5.9-22.1-10.6-36.6-25.7-49.2-51.1-5.1-10.3-11.3-27.2-14.1-38.7l-1-4.1-6.3 1.8c-3.4.9-32.5 9.3-64.7 18.5s-58.9 17.1-59.3 17.5c-1.2 1.1 10.1 34.4 16.8 49.5 24.8 56.2 61.9 95.5 110.5 117 41.7 18.4 92.6 24.9 148.9 18.9 49.7-5.3 93.9-22.7 127.4-50.2 8.9-7.4 24.9-23.5 31.8-32.2 23.7-29.6 38.8-67.4 42.9-107.5 1.8-17.1.8-52-1.9-66-7.4-39.3-26.1-74.2-53.9-100.7-24.5-23.4-61.8-43.4-129-69.2-41.3-15.9-75-31.3-91.3-41.7-23.4-15.1-33.7-38-28.4-63.4 2.5-11.8 7.6-20.8 17.4-30.6 9.3-9.2 17.7-14.3 29.6-17.5 9.9-2.7 32.9-3 44.7-.6 17 3.5 34.2 13.2 45.8 25.8 11.3 12.4 21.6 30.3 27.5 47.8 1.7 4.7 3.3 8.6 3.6 8.6.8 0 120.8-45.9 122.6-46.9 1.5-.8-6.1-24.3-12.7-39.1-12.3-28.1-31.6-54.4-52.3-71.5-29.7-24.4-63.4-38.7-107.4-45.6-17.6-2.7-66.6-3.6-83.3-1.5zM0 3424.5V3767h150v-271l38.1.2 38.2.3 45.6 135 45.7 135 81.7.3c44.9.1 81.7.1 81.7 0 0-.2-28.3-67.6-62.8-149.8l-62.9-149.4 8.3-4.9c42.6-25.4 70.4-64.8 81.8-115.7 4.5-20.3 5.9-34.5 5.9-59.5.1-43.5-6.8-74.7-23.8-109-14.5-29.1-31-48-57.4-65.7-18.5-12.4-37.1-20.5-55.4-24.2-27-5.6-57.7-6.6-195.9-6.6H0v342.5zm239-230c22.5 3.4 35 10.3 47.2 26.4 14.8 19.5 21.3 46.3 18.8 78-3 40-16.4 64.2-42.5 77.2-16.2 8-18.3 8.2-68.2 8.7l-44.3.3V3193h39.8c29.5 0 42.1.4 49.2 1.5zM495 3300.7c0 131.6.4 226.4 1 237.8 2 37.5 5.6 68.9 10.6 92.9 11 52.2 38.8 91.3 82.7 116.5 34.9 20.1 79 29.4 139.2 29.4 50.7 0 87.7-7 121.2-22.8 32.2-15.2 62.4-42.5 80-72.2 16.5-28 22.8-57.1 28.5-131.8.8-10.4 1.2-85.2 1.5-241.8l.4-226.7H835v196.2c-.1 236.1-.9 281.1-5.6 309.1-4.4 26.9-19.4 47.9-41.9 58.7-11.7 5.7-19.2 7.6-34.1 9.1-23.3 2.2-46.9-2.6-64.2-13-22.7-13.5-34.9-34.5-39.6-68.1-3.9-28-3.9-29.8-4.3-263.8l-.4-228.2H495v218.7zM1569 3424.5v342.6l141.3-.4c94.9-.3 144.6-.8 151.7-1.6 55.7-5.9 81.5-13.3 107.9-30.8 11-7.3 31.3-27.6 40.4-40.3 8.1-11.4 19.4-33.9 23.7-47 15.8-48.7 12.9-110.9-7.1-153.9-10.3-22.2-30.8-45.7-52.3-60-11-7.3-30.5-17.3-40.3-20.7-2.9-1-5.3-2.1-5.3-2.5 0-.3 3.3-1.8 7.3-3.4 38.1-14.8 64.9-40.9 78-76 13.6-36.4 15-87.5 3.7-130.3-7.7-29-22-54.2-42-74.3-26.8-26.9-51.3-35.8-115.5-42-8.2-.8-56.8-1.3-151.7-1.6l-139.8-.4v342.6zm235-230c30 4.3 46 13.5 56.9 32.8 17.4 30.9 15.7 71-4.3 101.1-7.5 11.3-14.9 16.8-29.3 22-17.7 6.2-40.7 8.6-84.4 8.6H1713v-166h40.3c30.2 0 42.8.4 50.7 1.5zm14 276.8c19.4 3.3 33.2 8.5 45.6 17.3 11.4 8 19.5 20.9 24.2 38.3 2.4 9 2.6 11.1 2.6 32.1 0 20.1-.2 23.3-2.2 30.5-8.8 32.1-30.7 50.6-68.7 58.2-6.4 1.2-17.6 1.6-57.2 2l-49.3.5v-181.4l47.8.5c37.2.3 49.8.8 57.2 2zM1999.9 3084.2c.5 1.3 39.2 90.3 86 197.8l85.1 195.4V3767h150v-289l84.7-176.1c62.5-129.9 84.9-175.6 85.5-174.3.4 1.1 31.6 145.2 69.3 320.4 37.8 175.2 68.9 319.5 69.2 320.7l.5 2.3h66.3c52.1 0 66.4-.3 66.7-1.3.3-.6 21.4-107.7 46.9-237.9s46.6-236.4 47-236c.3.4 21 107.5 46 237.9l45.4 237.3h67.2c63.1 0 67.2-.1 67.7-1.8.6-2 146.6-685.9 146.6-686.7 0-.3-28.3-.5-63-.5h-63l-.5 2.2c-.3 1.3-19 107.6-41.5 236.3-22.6 128.7-41.4 234.8-41.8 235.8-.4 1.1-17.4-92.1-42.1-231.5-22.7-128.3-41.8-235.4-42.3-238.1l-1-4.7h-137.6l-.7 3.7c-3.6 20.3-88.7 468.9-89 469.1-.6.6-1.2-3.4-36.5-236.3-19.2-127.1-35.3-232.2-35.6-233.8l-.6-2.7-135.1.2-135 .3-51.3 123.9c-28.3 68.1-51.6 124.1-51.9 124.4-.3.3-.6.3-.8.1-.2-.2-21.9-56.2-48.3-124.4l-47.9-124-82.7-.3-82.8-.2.9 2.2zM3750 3424.4V3767h150v-271h75.5l36.9 109.3c20.3 60 40.9 121 45.9 135.4l8.9 26.3h81.4c44.8 0 81.4-.3 81.4-.7 0-.4-28.2-67.7-62.6-149.5-34.4-81.9-62.4-149.1-62.2-149.4.3-.2 4-2.5 8.4-5.1 48.9-29.4 77.5-76.4 85.6-140.3 1.7-13.7 1.7-57.5 0-69.5-8.7-60.4-32.8-105.3-72.2-134.4-24.3-18-47.8-27.9-75.3-31.5-26.8-3.6-35.6-3.9-168.9-4.3l-132.8-.4v342.5zm235.9-230.4c20.8 2.7 30.3 7 42.6 19.4 13.4 13.5 21 28.5 24.6 48.6 2.2 11.9 1.7 43-.9 55.6-5.9 29-18.7 47.6-39.7 58-17.4 8.6-18.9 8.8-68.7 9.2l-43.8.3V3193h39.3c21.5 0 42.5.5 46.6 1z"/><path d="M4254 3424.5V3767h150v-232.5l27.6-40c15.2-22 28.1-40.6 28.8-41.3 1-1 12.3 27.4 57.6 146 30.9 81 58 151.9 60.2 157.5l3.9 10.3h77.5c42.6 0 77.4-.2 77.4-.5s-41.9-97.8-93-216.6l-93.1-215.9 81.7-119.8c44.9-65.8 83.7-122.5 86.1-126l4.4-6.2-76.2.2-76.1.3-82.3 141.3c-45.3 77.8-82.8 141.9-83.4 142.5-.8.8-1.1-37.5-1.1-141.6V3082h-150v342.5z"/></svg>