<svg xmlns:rdf="http://www.w3.org/1999/02/22-rdf-syntax-ns#" xmlns="http://www.w3.org/2000/svg" version="1.0" xmlns:cc="http://creativecommons.org/ns#" xmlns:dc="http://purl.org/dc/elements/1.1/" viewBox="0 0 899.9314 1220.8199"><g transform="translate(-2007.6777,528.583)"><path fill="#BD342D" d="m2063.1767-27.853807,9.9642-3.7856,0.777-3.4842,0.2371-1.0294,0.1266-0.3802,0.4277-1.2036,0.476-1.2196,2.9932-7.0637,3.2634-5.8758,6.0504-9.2336,0.1423-0.2693,0.2058-0.6336-0.017-1.0609,0.08-1.1245,0.079-0.3484,0.2385-0.6019,0.3963-0.4752,0.4111-0.3484,2.566-1.5204,2.4399-0.7127,5.7498-3.0094,5.259-3.1833,0.3163-0.1268,0.5704-0.1901,0.3811-0.047,1.5353,0.1109,1.5697,0.2534,0.7279-0.048,0.6491-0.1424,1.1403-0.4435,6.0991-2.8825,4.8936-2.2014,5.196-1.457,6.2092-2.5341,0.7296-0.475,0.6491-0.5703,1.5201-1.774,1.4105-1.8372,1.6149-2.043,3.9922-4.1338,0.9032-0.7125,2.2649-1.7107,0.5699-0.2216,2.9463-1.0295,2.5669-0.9979,0.5377-0.2536,0.5229-0.269003,0.7127-0.4911,0.5395-0.6969,0.8388-1.6787,1.4574-2.5658,0.871-1.1719,1.5845-2.0907,0.5699-0.6492,0.4429-0.3643,0.2219-0.1742,1.5532-0.8711,1.8847-0.9029,1.2047-0.3641,6.4611-2.4234,0.8249-0.3484,1.0137-0.5859,0.6491-0.6019,0.3637-0.8711,0.7762-2.4708,3.6118-1.8846,3.4527-0.4117,9.4731-3.1677,6.5102-3.7219,0.9659-0.5862,0.4442-0.3484,5.3064-4.292,4.4507-0.047-0.064,0.3485,0.064,0.6651,0.1741,0.2534,0.3959,0.3802,1.8216,1.5044,0.5077,0.2693,1.6149,0.5226,0.3803,0.063,1.0146-0.1901,0.5229-0.2375,1.2982-0.6651,0.5386-0.2851,0.4429-0.3485,0.6022-0.6492,0.4437-0.3169,2.0909-1.0927,2.6931-1.267,0.5542-0.2377,0.9359-0.2375,5.1472,1.1403,0.2845,0.4909,0.523,0.6495,0.9023,1.0927,0.4281,0.3802,0.5708,0.2693,3.2943,1.3461,0.6504,0.206,0.6957,0.1583,1.0929,0.2058,0.6974,0.1268,1.2038,0.1268,0.459,0.032,1.9486,0.032,1.1251-0.032,0.6804-0.1109,3.9765-0.7126,11.4513-2.2489,0.3011-0.064,2.8361-1.1086,5.0694-2.0589,0.5543-0.2375,0.7922-0.4435,3.9273-2.8349,0.3167-0.4594,0.4438-0.8552,0.1427-0.6492,3.7389-3.1995,3.9121-3.3101,3.5797-2.35989,0.7448-0.4591,1.3305-0.6495,0.5695-0.2375,0.2379,0.1742,0.1427,0.2534,0.2219,0.9026,0.3798,0.412,2.2502-0.079,9.2664-1.3937,8.4263-1.3938,5.8777,0.2534,0.3158,0.1109,0.4125,0.016,0.3798-0.047,7.6027-2.5816,0.9989-0.6018,0.2215-0.2218,7.1115-8.5683,0.3176-0.4752,0.5377-1.0927,0.6505-2.2175,0.063-0.3484,0.1109-0.3008,0.1749-0.2219,0.2215-0.1898,5.3861-3.7698,0.2532-0.1424,4.9258-0.6018,1.1407,0.1424,10.0895,2.2807,3.8969,0.9979,6.4324,2.7401,0.6487,0.1899,1.1564,0.1585,0.3646-0.032,0.9345-0.2534,5.2103-2.7242,1.6015-1.1562,3.6897-1.5047,13.5122-2.2013,7.6984-0.9188,0.7436-0.032,1.9012-0.095,1.742-0.2534,0.5869-0.1743,4.8314-1.4888,0.887-0.301,12.2275-4.7828,18.2008-7.2224,1.8538-0.8393,4.308-2.043,0.7927-0.3961,1.5358-0.8867,2.7726-1.964,2.7705-2.0113,0.6826-0.5068,4.0705-3.1046,1.1564-0.9185,0.6021-0.5226,2.1544-2.2172,2.4869-2.7242,0.7761-0.8552,8.8222-11.9261,0.8562-1.5521,3.0572-5.8283,4.6883-10.2472,7.5557-8.9325,0.2697-0.5544,0.095-0.2693,0.048-0.3958-0.016-0.3011-0.079-0.3166-0.3637-0.792-0.3011-0.475-0.2062-0.1901-0.2689-0.1742,0.4282-2.2966,2.0265-4.3237,0.5386-1.0612,0.2062-0.1901,0.2536-0.1424,0.3642-0.016,0.3167,0.095,0.2062,0.1901,0.7127,0.4909,0.3163,0.1266,1.8694,0.206,0.6178-0.1425,2.5338-1.3937,3.0254-2.1698,0.8884-0.7287,0.6017-0.57,0.5534-0.6336,0.8249-1.2037,1.347-2.138,1.0289-0.1901,0.8231-0.3958,0.7127-0.4435,0.9662-0.6177,10.375-7.3648,0.4285-0.3326,1.1086-1.2669,0.9027-1.473,0.2219-0.5702,0.5064-1.4571,0.174-1.0768,0.033-0.7287-0.3485-1.5995-0.2219-0.5385-0.3011-0.4754-0.3959-0.4433-0.8714-0.301-4.5294-1.2037-2.3924-3.2784,0.032-0.8237-0.6178-10.1838-0.08-0.3641-0.2219-0.507-0.4433-0.7443-0.5069-0.681-0.2532-0.5067-1.4096-3.8961-0.3011-0.8711-0.1897-0.9662-0.1266-1.6945,0.3011-9.4237,1.7738-6.8263,4.4672-7.5229,0.3798-0.4117,1.2038-1.1404,0.4111-0.3802,4.2302-3.801,0.9501-0.8396,1.1564-0.8078,2.2171-1.3143,0.4916-0.2852,0.3011-0.1109,4.1183,0.2693,3.089,0.1424-0.4908-0.6651-2.2815-4.3078-0.3328-0.8235-0.094-0.6177,0.1584-0.2218,2.043-2.7399,0.6178-0.5544,0.7762-0.3484,0.3641-0.063,0.3172,0.048,0.1892,0.1899,0.412,0.7919,0.1902,0.1901,0.2858,0.1268,0.7118,0.063,0.6186-0.1584,2.1066-0.6653,4.3088-1.4729,0.57-1.6315-1.3783-1.6945-0.1431-0.2375,0.048-0.3802,1.2687-4.9889,0.2214-0.5702,0.6339-0.9027,0.8227-0.7286,0.2858-0.1107,0.3955,0.016,0.6013,0.206,0.7613-0.016,0.7757-0.3958,0.4434-0.3326,2.7087-2.74,0.1749-0.6178-0.017-0.6812-0.1257-1.0135,0.015-0.38,0.349-0.8395,0.1418-0.2534,0.8871-1.473,0.2849-0.1107,3.9287-1.3622,3.9599,3.231,0.062,0.3008-0.046,0.3484-0.285,0.4912-0.5064,0.681-0.2067,0.1742-0.2845,0.1107-0.7292-0.063-0.3002-0.1266-0.2062-0.1583-0.5386-0.2378-0.3324-0.095-0.3489,0.032-0.2858,0.111-0.2058,0.1742-0.1736,0.2375-1.6476,5.8919,0.111,0.2693,0.9506,2.0112,0.3806,0.4119,2.2328,2.2014,2.2645,1.2195,1.0146,0.4435,1.0772,0.9502,1.1564,4.3714,5.0371,9.0909,5.8755,10.564,3.8021,6.2401,3.4378,5.4641,2.4712,3.7851,3.2943,4.8464,0.9497,1.0614,0.1118,0.2534,1.1886,4.5771,0.2376-0.1266,0.1897-0.206,0.2062-0.681,0.4751-3.8487-0.079-0.2849-1.1882-1.6158-0.4912-1.0136-0.2218-0.871,0.2062-4.4821,3.0097-8.9169,0.3002-0.5383-2.6286-6.8578-0.1745-0.9344,0.064-1.362,0.063-0.3961,0.2376-0.6335,0.5542-1.1086,0.4595-0.7604,2.9471,0.1424,0.3637,0.079,0.3011,0.1425,3.8485,4.007,1.8699,2.4708,0.5382,0.982,0.7292,0.8709,3.8333,3.3735,0.6961,0.5385,0.824,0.4909,0.714,0.1742,0.3476-0.016,0.6021-0.1427,0.5064-0.285,0.1901-0.2059,0.032-0.3959-0.2693-0.1268-1.4692-0.3974-0.6222-0.2203-0.2375-0.1583-1.9639-2.3914-0.3324-0.4435-0.1261-0.2534-0.2062-0.5544-1.347-4.8623-0.4594-1.7263,0.1583-0.9346,2.2336-2.7873,3.1212-2.8825-1.9012-0.9661-4.3402,1.2828-0.5865-0.2849-0.6334-0.6495-0.379-0.7286-2.0765-4.6563-6.2728-6.5411,0.3333-6.2242-3.8177,0.1583-0.238,0.1583-1.8368-0.079-0.4438-0.063-0.3489-0.1742-2.1379-1.5045-1.8064-1.7898-0.1583-0.2217-0.08-0.3327,0.1745-0.2378,3.8338,0.2693,3.9752,1.0455,2.7087,0.8396,0.777,0.1266,0.9663-0.1742,3.8651-5.6542,0.4907-2.9302-0.063-1.8687-0.1744-0.2217-0.2689-0.1585-0.9667-0.38-0.3646-0.032-0.6648,0.063-3.9443-0.57-0.301-0.111-0.5386-0.3167-1.6794-1.5679-0.2854-4.4664,0.2219-1.0771,0.4294-0.8393,0.1736-0.2534,0.2219-0.1583,1.551-0.681,0.2706-0.111,6.6995-0.9661,0.3646,0.032,3.9913,2.7398,0.2532,0.1901,0.1749,0.2217,0.1105,0.301-0.048,0.3325-1.3778,2.3282-2.8031,0.5703-0.2698,0.1109,0.1749,0.2218,6.0509,6.05,2.9776,0.6175,0.017-2.0588,0.1266-0.3326,4.023-5.2109,6.606,0.8713,0.6804,0.1901,1.1878,0.5227,1.5362,0.681,1.1411,0.5544,0.7283,0.8552,0.5543,1.6312,0.7609,1.8847,0.3642,0.8078,0.1427,0.2216,0.1583,0.2219,0.4751,0.38,0.6022,0.1742,0.6961,0.1901,5.0689,0.2375,0.6339-0.1107,0.1583-0.681,0.285-0.5544,1.5527-1.7105,0.5221-0.3484,0.2863-0.048,0.3171,0.1268,1.2352,0.776,3.4679,1.6946,5.5131,0.5385,0.6974,0.032,4.5612-0.681,3.1529-0.4912,1.0446-0.047,0.4116,0.032,1.0624,0.2692,0.3163,0.1268,3.7702,2.1698,0.6652-0.064,2.4394-0.5542,0.5225-0.2375,0.1271-0.301-0.1105-0.2534-0.2698-0.1583-0.7605-0.1584-1.6636,0.1584-0.3002,0.079-0.6809,0.063-0.3963-0.063-0.7449-0.2218-3.7698-1.3779-2.281-1.2036-0.4425-0.3485-0.5242-0.3167-0.3163-0.1109-3.8651-0.7284-0.412-0.063-2.439-0.1586-0.7448-0.032-2.7557,0.586-0.5708,0.1424-0.998,0.6177-2.8671,0.1268-0.7283-0.064-0.2532-0.1583-0.6813-0.9344-1.0459-2.6766-0.3489-3.4528,0.8405-2.6766,0.127-0.301,2.1379-3.8326,2.2976-0.5226,1.6467,2.8825,0.7605,1.1401,0.6491-0.032,3.913-2.8034-0.4433-5.2106,0.9336-3.8012,0.7444-2.138,2.8836-3.1677,3.3891-2.7874,0.2063-0.2059-0.079-0.2851-1.6641-0.681-1.4096-0.396-0.3316,0.032-2.3772,0.4277-0.4433,0.3008-0.3959,0.4118-1.916,2.7083-0.9354,1.4887-0.5699,1.0612-0.918,2.1064-2.6774,0.047-4.7204-3.5794-0.2054-0.19-0.2375-0.871-1.1259-7.0638-0.3481-3.4526,0.063-0.3485,4.2919-10.1997,0.3972-0.4276,0.4908-0.285,1.0615-0.4593,0.3002-0.079,0.3489,0.048,2.0753,0.8553,0.5229,0.3642,0.1105,0.5542,0.2533,0.2061,1.9334,0.9977,0.3002-0.079,1.2669-0.4909,2.8357-1.584,1.1877-1.362-0.348-0.095-0.5865-6.351-0.174-3.6269,0.2375-1.0294,0.1266-0.2534,0.3015-0.079,1.8691-0.1584,0.3489,0.095,11.6423,5.8124,1.5671,1.2513,0.2062,0.1742,2.3284,2.1223,0.6022,0.6336,0.1583,0.5859,10.4955,4.6163,0.1018-0.4508-0.2062-0.1901-0.4429-0.3801-2.9937-2.2807-1.0454-0.6969-0.9668-0.6177-0.4276-0.3801-0.1736-0.2217-0.2062-0.5385-0.031-0.3167,0.158-0.7285,0.8074-2.5343,0.3172-0.5384,0.3959-0.3801,0.4594-0.3326,0.523-0.2375,0.2532-0.8711-0.998-0.6177-0.6813-0.3326-4.5612,0.095-1.4266,0.5067-1.3143,0.586-0.2376,0.1742-1.7742,0.9186-0.301,0.1109-0.285,0.032-0.3485-0.1267-0.4272-0.4118-0.4855-2.3979,0.01-0.2091,0.076-0.1995,0.096-0.152,0.3324-0.3991,1.8716-2.5499,1.6793-1.1087,0.3015-0.063,0.3959,0.047,0.3329,0.491,0.1736,0.1742,0.4437,0.3801,0.2537,0.1584,0.3485,0.095,0.2697-0.1267,2.09-3.1992,0.1271-0.3009-0.032-0.285-0.2054-0.2218-0.3167-0.079-1.568-0.2217-4.5786,2.6448-0.2693,0.2218-2.0234,1.3557-0.1145,0.1235-0.4089,0.5797-0.1619,0.076-0.1805-0.076-1.2922-0.2217-1.7106-3.912-0.031-0.3167,0.095-0.3484,1.7898-2.0273,2.3128-1.1563,0.3477,0.048,3.1685,0.9344,1.2043-0.3643,2.566-1.2987,0.6012-0.6968,0.017-0.3485-0.096-0.2534-0.9171-1.3936,3.4209-2.3441,3.9286,8.6476,0.9023,0.7285,0.1906-0.2058,0.4585-2.1858,0.016-0.3168-0.7283-2.1064-0.016-2.6132,3.39,1.6313,1.5997,0.9819,1.4892,0.9186,0.2532,0.2375,0.079,0.2536-0.3011,1.4094,0.032,0.3169,0.2219,0.19,0.8231,0.4752,0.8389,0.3643,0.6669,0.2058,0.3955,0.063,4.5455-0.1425,0.8075-0.396,0.4594-0.3325,0.1906-0.2059,0.2532-0.5545,0.015-0.3485-0.2684-0.2058-0.7449-0.1426-0.6012,0.1584-0.2541,0.1108-0.6334,0.111-0.3638-0.016-0.2697-0.1427-1.2042-0.8552-0.1741-0.2534,0.064-0.3959,1.7098-1.3304-1.4249-1.0294-4.4515-3.1518-0.6648-0.2218-5.3226-2.2173-0.032-0.3167,0.1579-0.2533,1.7116-1.8848,0.2218-0.1267,1.4253-0.4276-2.2171-2.5659-0.3498-0.3959-3.5153-5.1947-0.08-0.2852,0.031-0.7127,0.095-0.3326,6.0509-7.8398,1.2364-1.1878,4.0552-3.0884,2.9772,1.2512,8.4898,0.6335,0.7605,0.032,0.6643-0.063,1.5223-0.3484,0.3324-3.2469,0.2689-3.7376-1.092-6.4144-0.032-0.6335,0.2854-2.4073,0.4585-1.1087,0.8084-1.0612,0.6334-0.1108,0.3485,0.095,5.8129,2.55,0.1749,0.2217,0.032,0.3168-0.8074,2.9616-0.095,0.3327-0.1906,0.2059-0.2219,0.1742-0.2693,0.1108-3.7063,15.3786-0.1427,0.6811,0.032,0.3167,0.1266,0.2535,0.2541,0.1585,0.3485-0.063,0.1892-0.1743,0.1584-0.2535,0.3959-0.9977,2.4398-6.9845,0.174-0.681,0.3329-1.8848,0.064-0.6969-0.1118-0.6018,0.064-0.7443,0.174-0.2851,0.174-0.1743,0.3011-0.079,0.7605,0.1583,5.8611,2.8192,0.4273,0.6968-0.095,0.3801-0.4594,0.2852-0.7605,5.4006,0.032,0.3168,0.9497,1.758,0.2228,0.1425,3.2469,1.9957,0.3476,0.095,0.8553-1.584,3.6437-4.0069,2.5986-1.568,0.2206-0.1742,0.1583-0.2534,1.5058-9.582,4.3397-8.4733,0.095-0.3484,0.1427-3.3893-3.2943-8.9485-0.1745-0.2692-0.2062-0.19-0.7444-0.4435-0.8875-0.3168-1.4888-0.681-0.5543-0.3168-0.174-0.19-0.1262-0.2534,0.1262-0.2851,0.2697-0.1267,2.7401-0.2059,4.5934,0.681,3.9599,1.964-0.08,3.8011-0.079,0.3485-0.4276,0.3642-0.5547,0.206-0.6022,0.1899-0.2845,0.032-1.172,0.3168-0.2063,0.2058-0.1583,0.2534,1.7263,5.6543,0.08,0.2534,0.1736,0.2216,0.8719,0.396,1.4883,0.1267,0.3485,0.095,2.0766,1.5363,0.3954,0.4118,0.1588,0.2533,0.2532,0.792,1.4562-2.249-1.0764-2.8508,0.016-0.3484,0.7435-2.6133,0.1588-0.2535,1.2678-1.9955,0.1584-0.2059,5.4648-4.197,4.0552-0.5861-0.65,2.5341-1.9473,3.0885-0.1114,0.2533-0.095,0.3326-0.016,0.3643,0.174,0.2217,6.3998,7.7922,1.8368,0.5227,5.7977-5.9392,0.1905-0.2059,4.767-8.5842-1.5518-7.5231-0.9981-2.3597,0.1741-0.3009,6.0195-2.2807,0.5543-0.206,5.165-1.2813,0.2845,0.1727,3.3892,2.6609,3.2316,3.1833,0.1584,0.2059,0.048,0.2851-0.048,0.3801-0.2532,0.6018-0.824,1.2196-0.079,0.301,0.031,0.3325,2.9467,4.0387,0.3794,0.4434,0.2227,0.1426,0.6174,0.2375,0.3332-0.032,0.1897-0.2058,0.7914-2.2174,0.033-1.8688,5.005-0.2059,6.4794,1.8848,3.722,1.1561,0.221,0.19,0.1744,0.2059,1.1086,1.5679,0.2545,0.5069,0.079,0.2851,3.8807,5.0206,7.571,4.9573,0.4751,0.3326,3.9608,5.0682,1.6467,1.8688,1.062,1.9797,5.3687,7.8715,4.1026,5.8759,0.4916,0.3326,0.3011,0.1267,0.6495-0.048,0.3163-0.1583,0.1906-0.1583,0.3802-0.4278,0.1584-0.2533,0.4429-0.3326,0.3968,0.047,1.5836,1.2511,4.9093,3.8963,0.6804,0.5543,2.2832,2.3757,0.7587,2.2173,0.3168,3.3418-2.7548,3.8485-2.9794,8.9802-0.9815,3.9595-0.127,0.6968-0.031,1.0928,0.078,0.602,0.127,0.2533,0.3429,3.2247,0.1514,0.3041,0.048,0.1995-0.01,0.6082-0.3898,9.8385-0.094,0.7761-0.3968,1.3146-0.2367,0.6018-0.4438,0.8552-0.9989,1.0135-0.4576,0.3327-0.5709,0.6018-0.3167,0.5068,0.08,0.2852,0.3637,0.079,0.3324-0.032,1.0128-0.5385,1.1242-0.8395,0.6491-0.5543,0.3968-0.4276,0.5064-0.7126,0.1897-0.2852,0.3654-0.8711,0.3168-1.362,0.4594-3.4052,0.2837-2.9933,0.5464-1.416-0.2576-0.4276-0.4176-0.5322-0.076-0.152,0.5603-1.644,0.095-0.152,0.1427-0.1045,0.1897-0.019,0.1897,0.067,2.613,1.1226,2.0517,2.005,0.4951,0.4941,1.6463,1.3925,0.2697,0.4911,0.064,1.3462,0.1584,0.9344,0.1583,0.5701,0.9015,2.4709,0.1584,0.2058,0.2697-0.1108,0.063-1.0612,0.096-2.5341,0.031-1.7263-0.1584-0.9345-0.174-0.5701-0.2854-0.5068-1.5897-2.6956-0.2941-0.1996-0.2567-0.2185-0.4768-0.5133-0.4464-0.6652-0.228-0.4751-0.1523-0.5226-1.8464-5.9551,0.047-0.6493,0.2054-0.6494,0.6021-1.0612,0.6491-0.9819,0.5395-0.681,4.1661-5.1315,0.1897-0.206,0.4438-0.3484,0.3011-0.079,0.3637,0.016,0.2227,0.1743,0.2054,0.5384,0.047,0.3168-0.063,0.7127-0.016,1.0927,0.6492,3.342,0.078,0.3167,0.2541,0.8235,0.301,0.4753,0.221,0.1742,0.3655,0.016,4.3245,0.1426,0.6648-0.063,0.221-0.1742,0.1584-0.2534,0.3341-1.8055-0.049-0.3168-0.2524-0.5069-1.0459-1.3462-0.4281-0.7285-0.221-0.491-0.4281-1.077-0.3794-1.1086-0.2854-0.9028-1.5209-5.0206,0.094-0.3484,0.4142-0.3801,0.5847-0.1584,6.3206-1.6471,1.1416-0.2851,0.6491-0.079,6.6356,1.4096,13.9568,3.2942,5.5427,1.7561,0.033,1.6333,0.016,13.2721-0.047,15.2046,0.031,30.4246-0.031,76.0381,0.047,3.7852-0.047,138.7405,0.047,32.2143-0.016,13.93739-0.031,49.731003,0.016,29.7911,0.023,2.6242,0.01,32.2354-0.031,8.5523-0.016,19.9716002,0.028,17.1108998-0.028,16.7823,0.016,52.883004,0.016,18.720403-0.016,14.8718-0.016,7.9034,0.016,38.3595,0.3203,0.026-0.3359,0.6075,0.031,47.5296,0.016,14.5867-0.016,91.5117,0.016,22.8067-0.016,31.3908-0.031,53.5323,0.016,24.7072,0.031,18.7045-0.016,11.7202-0.016,7.1967-0.7309,0.088-0.9971,0.2219-0.9989,0.3008-9.0911,3.7697-1.1242,0.5542-3.9452,2.1224-8.5376,4.1019-21.1946,8.1726-9.2337,3.1515-0.9659,0.3011-3.1054,0.5067-6.9054,1.0454-5.1798,0.8713-6.1944,2.0588-5.1477,1.8214-11.6258,3.6584-3.8181,0.6494-5.8603,0.887-2.2823,0.2623-5.8124,0.2919-1.8534,0.079-17.2986,0.6177-2.7704-0.095-3.7063-0.2849-6.5425-0.5381-3.39-0.4277-4.0391-1.1405-1.4575-0.5703-1.1399-0.3324-1.2355-0.2849-1.2678-0.2536-1.742-0.3484-1.2834-0.1588-0.7292,0.048-0.6961,0.111-0.935,0.3006-0.5542,0.2853-0.4756,0.3959-1.5523,0.9661-0.871,0.3959-0.348,0.095-0.9989,0.1584-0.871-0.095-1.8682-0.602-1.5845-0.4433-0.4598-0.048-0.4747,0.032-0.5073,0.1584-8.5855,4.1812-0.2689,0.1584-10.6294,7-1.5358,1.0458-0.4751,0.4115-0.174,0.2062-0.048,0.2692-0.713,0.5703-0.6974,0.5381-0.744,0.5385-1.0289,0.6969-0.8871,0.4594-3.263,1.1719-0.6508,0.2218-2.2641,0.412-1.2043,0.095-2.3284,0.3641-1.8064,0.412-0.3324,0.1109-3.0254,1.4094-14.1613,6.6364-0.2845,0.1583-3.1851,1.9797-0.2837,0.1901-0.476,0.3484-0.4746,0.3802-0.8871,0.8392-0.3794,0.4754-0.4285,0.4115-0.7135,0.586-6.8897,3.4687-0.6661,0.2218-2.0426,0.6016-2.2971,0.3485-4.7987,0.6651-4.737,0.5068-2.5182,0.2218-2.8827,0.2689-2.8514,0.6816-1.3626,0.4115-1.5523,0.586-1.1242,0.602-4.8792,3.3417-0.7131,0.5703-1.4888,1.4572-0.8553,0.8392-0.1901,0.2218-1.8852,2.3438-0.7283,0.9979-0.301,0.5859-4.8945,12.9083-2.0909,7.9344-0.1262,0.6973-0.2384,0.5856-0.3963,0.4911-0.7601,0.5385-1.1877,0.5546-3.3261,1.8688-3.9925,3.5-1.156,1.0293-0.9819,1.077-0.7736,1.325-0.1631,0.7182-0.061,0.2693-0.08,0.7286,0.08,0.6969-2.5195,2.3281-2.3911,1.5047-6.1622,3.3573-3.8964,0.2536-0.2698-0.2061-0.5542-0.2693-0.7449-0.1897-0.8866-0.095-1.3618-0.064-1.8699-0.047-0.4276,0.016-0.7601,0.1427-0.5704,0.3324-0.1901,0.1901-1.9012,1.9796-0.8545,1.2672-0.1905,0.2214-0.2376,0.2375-0.6804,0.5229-1.9652,1.0771-3.8956,1.0609-1.6323-3.9593-1.9795-3.3735-0.4599-0.3484-0.5856-0.3328-0.697-0.2532-2.6773-0.8869-0.4277-0.048-0.4277,0.016-5.5436,1.5995-3.6123,1.1558-0.76,0.1266-0.8867,0.048-0.6034-0.238-4.6713-0.649-7.0815,0.064-0.4747,0.063-0.5699,0.2218-0.2375,0.1901-0.3959,0.4433-0.1114,0.3167-7.7146,0.6655-0.6969-0.2218-2.6452-0.6338-0.4281-0.047-1.2669,0.1109-2.6139,0.8552-0.3324,0.1109-0.301,0.1423-1.5045,1.1567-0.3002,0.4906-0.1749,0.6652,0.2063,1.7108-0.1106,0.3167-0.1583,0.2693-0.2371,0.1901-0.2863,0.1422-0.6339,0.2536-6.827,0.2375-1.5201-0.3167-0.7922-0.19-0.2215-0.1584,0.095-0.3167,0.6177-1.0614,0.2532-0.1901,0.744-0.1266,0.2062-0.2218-0.1579-0.6334-1.0455-2.5656-0.7126-1.663-0.2697-0.5542-0.9667-1.1249-0.8554-0.8866-1.1085-1.0453-0.4586-0.4119-0.6978-0.174-0.412,0.032-3.6907,0.4907-0.9976,0.3167-0.8714,0.475-0.3959,0.412-0.1749,0.6655-1.2034,0.8074-1.2029,0.5385-0.6661,0.2219-2.2336,0.4589-0.4111-0.047-0.3807-0.2058-5.8921-2.1219-8.1265-2.1698-0.8393-0.079-3.088-0.1901-5.149-0.127-1.7899-0.016-0.3802,0.063-6.4468,1.2989-9.5835,1.0297-6.9541,0.3323-2.1379-0.2849-0.8405-0.1109-0.4751-0.016-0.7596,0.1266-1.2034,0.5224-1.1573,0.5386-0.5386,0.3641-0.5856,0.2536-0.3802,0.095-3.7224,0.3167-1.648,0.079-8.7587,1.2193-3.1216,1.8053-2.328,1.1405-0.9663,0.3167-0.3798,0.064-0.4277,0.016-0.3641-0.095-2.171-0.6017-4.6247-1.03-1.9952-0.3324-1.3156-0.1266-11.2616-0.6968-0.476,0.032-1.0924,0.174-1.4262,0.3167-9.1868,2.3599-0.6813,0.2536-0.7761,0.4594-0.5077,0.3641-0.8071,0.903-0.6969,1.0136-0.396,0.4437-0.6969,0.5542-1.33,0.8234-0.8871,0.4276-1.5532,0.6334-1.6315,0.6177-1.6001,0.5859-2.7875,2.6135-0.412,0.4433-4.1979,5.9078-0.285,0.5698-0.1897,0.6495-0.5699,2.6609-0.064,0.7443-8.0622,6.1927-6.6686,3.2786-1.3313-0.5386-4.2136-1.1566-1.8529-0.4907-7.9521-0.9344-0.4751-0.032-1.1086,0.2218-1.2194,0.5224-6.7318,3.7854-0.8396,0.5072-1.0146,0.7121-1.0294,1.1093-0.1261,0.3167,1.9808,1.8213-0.8253,0.8866-0.4586,0.3958-0.7135,0.5864-1.1407,0.6016-2.914,1.4729-0.5382,0.2693-0.3494,0.095-1.1564,0.174-1.1877,0.174-1.0607,0.2375-3.1041,0.84-2.2023,0.8547-0.3015,0.1427-1.0929,0.586-0.5069,0.3645-0.4598,0.3959-1.1551,1.4572-1.0455,1.536-0.5555,1.5208-0.158,0.6964-0.031,0.3802-5.9873,3.3578-11.4043,5.0364-13.4335,1.8688-0.3489,0.095-0.3002,0.1422-0.2062,0.2223-0.079,0.3484,0.016,0.3485,0.1113,0.2845,0.6648,0.6177,0.8075,0.5228,1.236,0.5703,0.412,0.079,3.0568,0.4911,0.4115,0.064,0.3968-0.047,1.615-0.5703,0.6969,0.2375,0.3329,0.4911,0.064,0.3167-0.3019,0.127-2.8514,1.1084-0.697,0.2058-0.3798,0.047-3.3426-0.4433-0.3637-0.095-0.3167-0.1423-0.7148-0.5294-2.0105-1.4977-1.4409-0.7921-1.6476-0.6813-0.7444-0.174-0.8871-0.1265-2.6769-0.016-0.7596,0.1109-0.3489,0.095-0.5861,0.2688-0.7757,0.5385-0.4124,0.4437-0.3803,0.5229-0.3324,0.95-0.3959,2.2333-3.1681-2.265-1.1873-0.586-9.6475-3.4526-1.0294-0.3484-0.7761-0.1584-8.475-0.3958-12.7665,0.1109-0.4286,0.016-0.6808,0.1901-1.029,0.7443-0.3328,0.4911-0.127,0.301-0.3803,0.475-0.301,0.1423-0.7749,0.095-0.9045-0.016-1.6306-0.3166-0.7278-0.2371-0.9681-0.412-5.1476-1.2989-3.7855,0.8709-3.1999,0.048-7.9042-1.837-0.3167-0.1427-4.6896-2.8671-2.8979-1.6943-3.1995-1.7422-1.2678-0.5703-1.6789-0.6651-2.1705-0.6651-4.9258-0.9348-6.7791-1.0605-1.2047-2.8511-0.4912-1.0453-1.5836-2.5025-0.3168-0.4594-5.4965-5.2104-1.1242-1.014-0.6809-0.6016-7.6671-6.3672-8.3793-4.6558-0.6183-0.2854-5.6223-2.5499-0.6343-0.285-3.6115-1.4572-0.365-0.111-3.4209-0.3162-0.4598-0.032-1.6307,0.111-1.1094,0.174-0.7283,0.174-0.586,0.2375-0.5704,0.3484-0.2057,0.1745-0.3485,0.5541-0.2532,0.9979-0.2219,0.2219-0.9824,0.7286-0.4751-0.032-2.5181-2.2016-3.3265-3.0411-0.4281-0.4272-0.1105-0.2853-0.08-1.362-0.015-1.0614,0.047-0.3798,0.2227-0.6499,0.094-0.776-0.063-0.7125-1.886-8.711-1.0768-8.6948-0.2532-9.7088,0.048-0.3958,1.8681-9.0751,0.1027-0.4097,0.8014-0.066,0.4111,0.079,1.4101,0.4593,0.5699,0.3328,1.521,1.4568,0.6173,0.6656,0.1588,0.2536,0.2219,0.5698,0.047,0.3167,0.174,0.5546,0.1588,0.2532,0.2058,0.2062,0.523,0.3641,2.7087,0.9979,3.1681,0.95,0.4116,0.079,2.4554-0.079,1.1882-0.095,1.5197-0.1897,0.7291-0.1427,2.3764-0.6651,1.9012-0.6655,1.7407-0.8392,0.2545-0.174,13.0519-16.6936,0.7918-0.063,0.6334-0.2218,0.5073-0.348,0.4281-0.4755,0.2532-0.5703,0.2545-0.6494,0.1736-0.6808,0.031-0.7443-0.047-0.3171-2.5347-14.6818-0.9341-3.2782-0.9989-3.2468-0.8871-3.3104-0.063-0.3167-1.3617-6.9208-0.08-0.6338,0.048-0.3959,1.1403-3.1516,0.1266-0.301,0.1745-0.2693,3.3574-3.9594,0.2218-0.2218,0.4912-0.3485,0.3481-0.095,0.2545,0.174,0.031,1.3307-0.079,0.348-0.3015,0.1427-0.3328,0.079-0.2532,0.1745-1.8525,1.6312-0.871,0.8235-0.4294,0.8239-0.015,1.4568,0.2697,0.9183,2.1349,4.9958,0.096,0.1709,0.8418,1.6124,0.5069,0.3958,0.4129,0.064,0.3806-0.048,0.2532-0.174,0.1736-0.2536,0.08-0.3485-0.064-0.6807-0.1645-2.3695,1.0042-4.0607,1.6158-4.1021-1.0298-7.0484-0.6496-7.3006-0.047-2.9302,0.3793-0.5224,0.9663-3.7223-0.9976-5.6859,0.3485-8.6316,0.015-1.0929-0.015-1.457-0.064-0.6652-0.1261-0.9502-0.063-0.3169-1.806-8.0299-0.2218-0.9186-0.5865-1.4096-0.68-1.3143-2.4085-3.7219-4.1183-6.3671-6.6208-10.3738-0.6348-0.9976-0.2532-0.5227-2.3119-5.1791-1.1251-3.5318-0.3802-1.1404-3.1686-6.3353-0.3163-0.5068-3.4526-5.1472-1.6315-2.0906-0.2062-0.2216-0.7127-0.5703-1.9804-3.9594-4.9258-10.4372-1.8063-4.1495-0.2219-0.5227,0.1749-0.6653,0.2532-0.6018,0.079-0.3169,0.047-0.38-1.8042-11.3081-2.1393-7.1747-0.096-0.3169-0.9976-3.2308-0.2697-0.5385-0.2528-0.1742-0.9027-0.4276-0.191-0.206-0.1584-0.2534,0.1749-17.7862,0.031-1.0611,0.1432-3.2467,0.2219-1.9481,0.1422-0.8076,0.6335-2.8193,0.2062-0.6492,0.506-1.2037,0.1753-0.301,0.2375-0.9977,0.032-1.0614-0.095-0.6333-2.5347-7.9982-0.2062-0.5701-0.301-0.5067-1.2504-1.6789,0.1105-1.7581-0.048-0.3167-0.1105-0.6336-0.7283-2.344-0.2066-0.5385-2.6448-5.6065-0.4907-0.7128-6.3045-6.9687-1.648-1.3622-1.4571-1.0295-0.2854-0.1424-0.4594-0.3961-0.3959-0.4276-1.189-1.7104-0.6165-0.9185-0.9032-1.5047-0.1584-0.9503-0.2053-1.2828-0.1749-1.156,0.1584-0.2536,0.1749-0.6967,0.1261-1.8374-0.016-0.3485-0.2532-2.344-0.2697-2.3122-0.3476-0.8552-2.915-5.3375-0.9023-1.4886-0.6491-1.014-7.5879-9.5341-3.1842-4.8466-0.1584-0.206-0.191-0.2216-0.6008-0.2852-1.3152-0.475-0.6008-0.301-0.5382-0.3167-1.2839-0.8711-1.0293-1.077-0.3968-0.4277-0.5391-0.6809-2.264-3.0092-0.365-0.776-0.3002-0.8552-1.6637-6.9214-1.2038-5.1471-0.095-0.6812,0.079-1.0928,0.1427-0.7284,0.5542-2.0747,0.871-2.0908,0.2854-0.5545,0.5386-0.6968,0.2541-0.6019,0.047-0.3958-0.4116-2.2016-0.7926-3.3734-1.5993-5.5748-1.1721-3.1044-2.5982-4.9731-5.1485-9.4078-7.8564-13.193-0.6813-0.9661-5.6706-7.6813-5.8129-7.1271-2.8675-3.2786-1.3461-1.5044-0.6804-0.586-0.5243-0.3325-2.5185-2.0115-9.2973-8.6476-0.2859-0.5068-3.0885-8.8851,1.6637-2.4708,0.7126-1.4253,0.2376-0.6018,0.095-0.3485,0.096-0.776-0.191-2.2966-0.3328-1.5362-0.031-1.0612,0.078-0.38,0.3006-0.9187,0.2854-0.6018,0.2063-0.1743,0.3323,0.111,0.3803,0.4276,0.047,0.3325,0.5229,5.274,0.094,2.344,0.048,3.1518,1.7107,3.1995,1.3461-5.2586,0.4437-3.8484,8.4115,9.2968,0.1427,0.2534,1.0607,2.7716,0.048,0.3328,0.2689,3.405,0.3802,6.1294,1.3313,3.5159,4.0861,4.7356,0.2375,0.1743,1.2043,0.2057,0.4429,0.032,0.1736-1.4729,3.6758-2.2808,1.5841,0.2852,0.2532,0.1742,0.2858,0.1425,0.3794,0.079,0.2854-0.1265,1.394-1.7105,2.3128-3.7851,0.4594-1.299,0.047-1.4572-0.063-6.731-0.2536-0.5227-1.1882-2.043-0.3002-0.475-0.6343-0.5703-1.8695-1.5521-2.5977-1.3622-5.2112-3.2625-5.6876-5.0839-0.1414-0.602-1.0137-4.5773-2.0596-7.0636-0.3798-0.776-2.4402-3.31-2.1693-2.8986-0.5695-0.6492-0.3963-0.7761-0.063-0.8711,0.047-1.0294,0.127-0.7286,0.2532-0.9662,0.4594-1.251,0.2854-0.5545,0.4908-0.776,2.8357-3.9276,1.615,1.1086,1.822,3.6109,3.0255,4.4979,0.3802,0.4751,0.3802,0.396,3.1682,2.6292,2.0261,1.3779,0.5708,0.301,0.2392,0.2216,0.1414,0.2852,1.6159,4.3237,0.1427,0.6018-1.22,6.4461-0.1257,0.301-0.2066,0.2216-1.1577,0.9029-0.6009,0.9344,0.3642,3.8802,0.1422,0.9661,1.5054,3.8328,0.2371,0.1899,2.06,0.4435,0.6661-0.1425,0.4424-0.3802,1.0451-1.0768,0.4124-0.4435,0.3637-0.4752,0.9833-1.5995,2.3589-4.3237,0.1274-0.3011,0.8227-1.3778,1.5054,5.3057,1.236,4.9888,0.2214,2.9302,0.048,0.3169,1.5519,3.5,6.1139,7.6497,0.3646-0.032,6.7474-4.7513,0.2062-0.2217,0.1579-0.2536,1.3479-3.6109,0.11-0.6177-0.1897-0.9659-0.3323-0.4594-0.3968-0.3959-0.7762-0.4593-0.2062-0.2219-0.3807-1.2195-0.5381-2.0906-0.1105-0.6019,1.3778-8.6632,0.6187-2.3917,1.8999,0.6971,0.9832-1.7583,0.1736-6.3825-0.047-0.681-0.1431-0.206-6.6848-6.3354-4.9262-4.5453-0.9032-0.8394-0.3324-0.4276-4.5455-7.6658-1.8699-3.2466-0.4272-0.7919-2.4238-5.654-1.8216-4.3874-1.4413-3.5159-0.5704-0.6493-0.2371-0.1901-0.7609-0.5385-2.2023-1.2354-1.916-0.6334-0.5704-0.2851-0.2384-0.1901-0.285-0.4909-2.2005-5.163-0.2859-0.8237-2.1696-6.7787-0.6174-2.059,0.2846-0.966,0.412-0.8078,0.2845-0.9976-0.095-2.455-0.1892-0.871303-0.4751-0.7286-1.6628-2.3597-1.3313-1.8213-2.6922-3.0568-1.1416-1.2669-1.1399-0.9662-0.5699-0.5701-1.5684-1.6947-0.1431-0.2534-1.3775-2.8826-0.3323-1.1721-0.2698-1.2828-0.4281-10.5797,0.016-0.7127,0.1114-0.301,0.1583-0.2534,2.1223-4.973,1.2516-7.0161,2.3759-7.602304,2.519-6.8894,3.8495-7.1114,0.174-0.2534,1.7263-1.5838,0.2698-0.1425,1.2342-0.3326,0.5547-0.2218,0.2693-0.1266,0.5065-0.3484,3.1372-2.55,0.1897-0.2217,0.3167-0.5544,0.9354-2.7718,0.3015-1.7737,0.7435-5.6065,0.079-1.0454-0.047-0.3325-1.2356-7.143,1.2674-5.0363998,0.9497-1.1721,0.6813-1.3779,0.2376-0.6018,0.1749-1.1245-0.6187-5.5435-0.3803-1.1401-1.7889-5.0365-0.3803-0.7760002-0.412-0.7443-0.2849-0.507-0.2863-0.4909-0.4586-0.7127-0.3324-0.4751-0.9823-1.0772-0.459-0.3167-2.0122-2.8191-0.8397-4.6406,1.5367-3.3258,0.4498-0.3073,0.3729-0.5163,2.0287-3.231,3.7859-8.0456,1.1721-3.0568,0.998-2.7875,1.4409-4.4346,1.6794-5.3214,0.2854-0.602,2.043-4.213,3.5954-5.4639,0.6656-0.9978,0.5708-0.681,0.697-0.5227,3.1046-1.6471,0.5221-0.2217,3.2316-1.0137,0.6022,0.2533,0.4268,0.3961,0.1749,0.2058,0.2849,0.5385-0.079,0.6653-0.8396,0.7761-0.5856,0.6492-0.6183,1.0771-0.3963,0.8552-0.3324,1.3779-2.8823,14.1432,0.047,1.0294,0.2858,0.8552,0.238,0.5227,2.0105,4.1497,1.1729,1.5997-1.0938,5.0998-0.2214,0.1742-0.1588,0.269-0.079,0.3328-0.348,4.4029,0.1896,0.5542,0.8397,1.188,0.3811,0.4276,0.4751,0.3643,0.3167,0.095,2.8815-1.0768z"/></g></svg>

